<?xml version="1.0" encoding="UTF-8" standalone="no"?>
<!DOCTYPE svg  PUBLIC '-//W3C//DTD SVG 1.1//EN'  'http://www.w3.org/Graphics/SVG/1.1/DTD/svg11.dtd'>
<svg id="Layer_1" xmlns="http://www.w3.org/2000/svg" xml:space="preserve" height="850.39px" viewBox="0 0 850.39 850.39" width="850.39px" version="1.1" y="0px" x="0px" xmlns:xlink="http://www.w3.org/1999/xlink" enable-background="new 0 0 850.39 850.39">
	<rect y="765.35" width="85.04" height="85.039" fill="#F9DE26"/>
	<rect y="765.35" x="765.35" height="85.039" width="85.04" fill="#C42D1F"/>
	<rect x="765.35" height="85.04" width="85.04" fill="#C42D1F"/>
	<rect y="85.039" x="765.35" height="85.039" width="85.04" fill="#C34B21"/>
	<rect y="170.08" x="765.35" height="85.04" width="85.04" fill="#C26124"/>
	<rect y="255.12" x="765.35" height="85.04" width="85.04" fill="#C17527"/>
	<rect y="340.16" x="765.35" height="85.04" width="85.04" fill="#C1882A"/>
	<rect y="425.19" x="765.35" height="85.039" width="85.04" fill="#C0982E"/>
	<rect y="510.23" x="765.35" height="85.04" width="85.04" fill="#BFA732"/>
	<rect y="595.27" x="765.35" height="85.039" width="85.04" fill="#BDB336"/>
	<rect y="680.31" x="765.35" height="85.039" width="85.04" fill="#BABE3A"/>
	<rect y="765.35" x="765.35" height="85.039" width="85.04" fill="#B6C83E"/>
	<rect x="680.31" height="85.039" width="85.04" fill="#C84820"/>
	<rect y="85.039" x="680.31" height="85.039" width="85.04" fill="#C55C24"/>
	<rect y="170.08" x="680.31" height="85.039" width="85.04" fill="#C26C28"/>
	<rect y="255.12" x="680.31" height="85.04" width="85.04" fill="#BF7B2C"/>
	<rect y="340.16" x="680.31" height="85.039" width="85.04" fill="#BB8931"/>
	<rect y="425.19" x="680.31" height="85.039" width="85.04" fill="#B89536"/>
	<rect y="510.23" x="680.31" height="85.04" width="85.04" fill="#B39F3B"/>
	<rect y="595.27" x="680.31" height="85.039" width="85.04" fill="#AEA740"/>
	<rect y="680.31" x="680.31" height="85.039" width="85.04" fill="#A8AF45"/>
	<rect y="765.35" x="680.31" height="85.039" width="85.04" fill="#A1B44A"/>
	<rect x="595.27" height="85.04" width="85.04" fill="#CC5F21"/>
	<rect y="85.039" x="595.27" height="85.039" width="85.04" fill="#C76B26"/>
	<rect y="170.08" x="595.27" height="85.04" width="85.04" fill="#C2772C"/>
	<rect y="255.12" x="595.27" height="85.04" width="85.04" fill="#BC8131"/>
	<rect y="340.16" x="595.27" height="85.04" width="85.04" fill="#B68A37"/>
	<rect y="425.19" x="595.27" height="85.039" width="85.04" fill="#AF913C"/>
	<rect y="510.23" x="595.27" height="85.04" width="85.04" fill="#A89742"/>
	<rect y="595.27" x="595.27" height="85.039" width="85.04" fill="#A09C47"/>
	<rect y="680.31" x="595.27" height="85.039" width="85.04" fill="#97A04C"/>
	<rect y="765.35" x="595.27" height="85.039" width="85.04" fill="#8DA251"/>
	<rect x="510.23" height="85.039" width="85.039" fill="#D27322"/>
	<rect y="85.039" x="510.23" height="85.039" width="85.039" fill="#CA7B29"/>
	<rect y="170.08" x="510.23" height="85.039" width="85.039" fill="#C28130"/>
	<rect y="255.12" x="510.23" height="85.04" width="85.039" fill="#B98636"/>
	<rect y="340.16" x="510.23" height="85.039" width="85.039" fill="#B08A3C"/>
	<rect y="425.19" x="510.23" height="85.039" width="85.039" fill="#A78D42"/>
	<rect y="510.23" x="510.23" height="85.04" width="85.039" fill="#9C9047"/>
	<rect y="595.27" x="510.23" height="85.039" width="85.039" fill="#92914C"/>
	<rect y="680.31" x="510.23" height="85.039" width="85.039" fill="#869151"/>
	<rect y="765.35" x="510.23" height="85.039" width="85.039" fill="#7A9156"/>
	<rect x="425.2" height="85.04" width="85.039" fill="#D88723"/>
	<rect y="85.039" x="425.2" height="85.039" width="85.039" fill="#CD892C"/>
	<rect y="170.08" x="425.2" height="85.04" width="85.039" fill="#C28A34"/>
	<rect y="255.12" x="425.2" height="85.04" width="85.039" fill="#B68B3B"/>
	<rect y="340.16" x="425.2" height="85.04" width="85.039" fill="#AB8A41"/>
	<rect y="425.19" x="425.2" height="85.039" width="85.039" fill="#9E8A46"/>
	<rect y="510.23" x="425.2" height="85.04" width="85.039" fill="#91884C"/>
	<rect y="595.27" x="425.2" height="85.039" width="85.039" fill="#848751"/>
	<rect y="680.31" x="425.2" height="85.039" width="85.039" fill="#768455"/>
	<rect y="765.35" x="425.2" height="85.039" width="85.039" fill="#688159"/>
	<rect x="340.16" height="85.04" width="85.04" fill="#DE9A23"/>
	<rect y="85.039" x="340.16" height="85.039" width="85.04" fill="#D0972F"/>
	<rect y="170.08" x="340.16" height="85.04" width="85.04" fill="#C29338"/>
	<rect y="255.12" x="340.16" height="85.04" width="85.04" fill="#B38F3F"/>
	<rect y="340.16" x="340.16" height="85.04" width="85.04" fill="#A58B45"/>
	<rect y="425.19" x="340.16" height="85.039" width="85.04" fill="#96864B"/>
	<rect y="510.23" x="340.16" height="85.04" width="85.04" fill="#868250"/>
	<rect y="595.27" x="340.16" height="85.039" width="85.04" fill="#777D54"/>
	<rect y="680.31" x="340.16" height="85.039" width="85.04" fill="#677858"/>
	<rect y="765.35" x="340.16" height="85.039" width="85.04" fill="#57735B"/>
	<rect x="255.12" height="85.039" width="85.039" fill="#E5AD24"/>
	<rect y="85.039" x="255.12" height="85.039" width="85.039" fill="#D3A433"/>
	<rect y="170.08" x="255.12" height="85.039" width="85.039" fill="#C29B3D"/>
	<rect y="255.12" x="255.12" height="85.04" width="85.039" fill="#B09344"/>
	<rect y="340.16" x="255.12" height="85.039" width="85.039" fill="#9F8B4A"/>
	<rect y="425.19" x="255.12" height="85.039" width="85.039" fill="#8D834F"/>
	<rect y="510.23" x="255.12" height="85.04" width="85.039" fill="#7C7B53"/>
	<rect y="595.27" x="255.12" height="85.039" width="85.039" fill="#6A7356"/>
	<rect y="680.31" x="255.12" height="85.039" width="85.039" fill="#586C59"/>
	<rect y="765.35" x="255.12" height="85.039" width="85.039" fill="#46655C"/>
	<rect x="170.08" height="85.04" width="85.04" fill="#ECBE25"/>
	<rect y="85.039" x="170.08" height="85.039" width="85.04" fill="#D6B036"/>
	<rect y="170.08" x="170.08" height="85.04" width="85.04" fill="#C2A341"/>
	<rect y="255.12" x="170.08" height="85.04" width="85.04" fill="#AD9649"/>
	<rect y="340.16" x="170.08" height="85.04" width="85.04" fill="#998A4E"/>
	<rect y="425.19" x="170.08" height="85.039" width="85.04" fill="#857F53"/>
	<rect y="510.23" x="170.08" height="85.04" width="85.04" fill="#717456"/>
	<rect y="595.27" x="170.08" height="85.039" width="85.04" fill="#5E6A58"/>
	<rect y="680.31" x="170.08" height="85.039" width="85.04" fill="#4B615A"/>
	<rect y="765.35" x="170.08" height="85.039" width="85.04" fill="#37595B"/>
	<rect x="85.039" height="85.039" width="85.039" fill="#F2CE25"/>
	<rect y="85.039" x="85.039" height="85.039" width="85.039" fill="#D9BC3A"/>
	<rect y="170.08" x="85.039" height="85.039" width="85.039" fill="#C1AA46"/>
	<rect y="255.12" x="85.039" height="85.04" width="85.039" fill="#AA9A4D"/>
	<rect y="340.16" x="85.039" height="85.039" width="85.039" fill="#938A52"/>
	<rect y="425.19" x="85.039" height="85.039" width="85.039" fill="#7D7C56"/>
	<rect y="510.23" x="85.039" height="85.04" width="85.039" fill="#676E58"/>
	<rect y="595.27" x="85.039" height="85.039" width="85.039" fill="#526259"/>
	<rect y="680.31" x="85.039" height="85.039" width="85.039" fill="#3D575A"/>
	<rect y="765.35" x="85.039" height="85.039" width="85.039" fill="#264E5A"/>
	<rect width="85.04" height="85.04" fill="#F9DE26"/>
	<rect y="85.039" width="85.039" height="85.039" fill="#DCC73E"/>
	<rect y="170.08" width="85.04" height="85.04" fill="#C1B14A"/>
	<rect y="255.12" width="85.039" height="85.04" fill="#A79C52"/>
	<rect y="340.16" width="85.04" height="85.04" fill="#8D8956"/>
	<rect y="425.19" width="85.04" height="85.039" fill="#757859"/>
	<rect y="510.23" width="85.039" height="85.04" fill="#5D685A"/>
	<rect y="595.27" width="85.04" height="85.039" fill="#475A5A"/>
	<rect y="680.31" width="85.039" height="85.039" fill="#304E59"/>
	<rect y="765.35" width="85.04" height="85.039" fill="#114358"/>
</svg>
